M48
;DRILL file {KiCad (5.0.0)} date 02/08/19 12:09:55
;FORMAT={-:-/ absolute / metric / decimal}
FMAT,2
METRIC,TZ
T1C0.762
T2C0.800
T3C0.900
T4C1.000
%
G90
G05
M71
T1
X73.66Y-59.69
X73.66Y-62.23
X73.66Y-64.77
X73.66Y-67.31
X73.66Y-69.85
X86.995Y-59.69
X86.995Y-62.23
X86.995Y-64.77
X86.995Y-67.31
X86.995Y-69.85
X99.695Y-59.69
X99.695Y-62.23
X99.695Y-64.77
X99.695Y-67.31
X99.695Y-69.85
T2
X92.71Y-52.07
X92.71Y-59.69
X108.585Y-52.07
X108.585Y-59.69
X78.74Y-52.07
X78.74Y-59.69
X105.41Y-52.07
X105.41Y-59.69
T3
X73.66Y-73.66
X73.66Y-76.2
X86.995Y-73.66
X86.995Y-76.2
X108.585Y-64.77
X108.585Y-67.31
X99.695Y-73.66
X99.695Y-76.2
T4
X112.395Y-75.565
X112.395Y-78.105
X112.395Y-80.645
X112.395Y-83.185
X62.23Y-57.15
X62.23Y-59.69
X62.23Y-62.23
X62.23Y-64.77
X62.23Y-67.31
X62.23Y-69.85
X62.23Y-72.39
X62.23Y-74.93
X62.23Y-77.47
X62.23Y-80.01
X62.23Y-82.55
X62.23Y-85.09
X64.77Y-57.15
X64.77Y-59.69
X64.77Y-62.23
X64.77Y-64.77
X64.77Y-67.31
X64.77Y-69.85
X64.77Y-72.39
X64.77Y-74.93
X64.77Y-77.47
X64.77Y-80.01
X64.77Y-82.55
X64.77Y-85.09
T0
M30
